PathFileType  4	(X/Y/Z) C:\Users\antoi\Documents\MyRepositories\mobilecap\ResultsAnalysis
DataRate	CameraRate	NumFrames	NumMarkers	Units	OrigDataRate	OrigDataStartFrame	OrigNumFrames
100.0	100.0	7	51	mm	100.0	86	136
Frame#	Time	r_knee			r_shank_antsup			r_ankle			r_calc			r_5meta			r_toe			L_knee			L_shank_antsup			L_ankle			L_calc			L_5meta			L_toe			r_sh2			r_sh3			r_sh4			L_sh2			L_sh3			r_thigh1			r_thigh2			r_thigh3			r_thigh4			r_thigh5			L_thigh1			L_thigh2			L_thigh3			L_thigh4			r.ASIS			r.PSIS			L.ASIS			L.PSIS			C7			R_Shoulder			L_Shoulder			R_Sternum			L_Sternum			R_humerus			R_elbow_med			R_elbow_lat			R_forearm			R_wrist_radius			R_wrist_ulna			L_humerus			L_elbow_med			L_elbow_lat			L_forearm			L_wrist_radius			L_wrist_ulna			R_HJC			L_HJC			R_HJC_reg			L_HJC_reg			
		X1	Y1	Z1	X2	Y2	Z2	X3	Y3	Z3	X4	Y4	Z4	X5	Y5	Z5	X6	Y6	Z6	X7	Y7	Z7	X8	Y8	Z8	X9	Y9	Z9	X10	Y10	Z10	X11	Y11	Z11	X12	Y12	Z12	X13	Y13	Z13	X14	Y14	Z14	X15	Y15	Z15	X16	Y16	Z16	X17	Y17	Z17	X18	Y18	Z18	X19	Y19	Z19	X20	Y20	Z20	X21	Y21	Z21	X22	Y22	Z22	X23	Y23	Z23	X24	Y24	Z24	X25	Y25	Z25	X26	Y26	Z26	X27	Y27	Z27	X28	Y28	Z28	X29	Y29	Z29	X30	Y30	Z30	X31	Y31	Z31	X32	Y32	Z32	X33	Y33	Z33	X34	Y34	Z34	X35	Y35	Z35	X36	Y36	Z36	X37	Y37	Z37	X38	Y38	Z38	X39	Y39	Z39	X40	Y40	Z40	X41	Y41	Z41	X42	Y42	Z42	X43	Y43	Z43	X44	Y44	Z44	X45	Y45	Z45	X46	Y46	Z46	X47	Y47	Z47	X48	Y48	Z48	X49	Y49	Z49	X50	Y50	Z50	X51	Y51	Z51	

86	0.85000000	985.53884	470.23718	-84.65190	954.16041	354.66226	-103.42096	717.69692	218.26788	-121.91551	657.69134	219.37891	-177.16788	762.43934	99.06988	-92.01785	804.68181	88.70909	-132.80145	888.74701	467.03525	-367.29440	918.87452	371.61039	-305.81840	834.05115	84.96612	-303.60085	781.95399	50.76181	-251.61792	950.83350	37.02533	-308.92433	987.63341	56.54146	-254.08269	871.37047	282.27083	-118.98269	913.25472	393.16743	-52.56711	819.43814	333.62227	-75.10693	882.78784	381.20497	-385.87249	873.23859	260.80653	-381.03330	960.18751	778.60384	-76.75277	1007.94704	679.02650	-70.10128	967.19085	635.34688	-35.21804	861.21751	732.35186	-48.57978	910.49426	628.47936	-43.64825	960.60316	760.07276	-388.49834	968.36298	623.23872	-373.32888	861.86822	755.11061	-437.79801	866.32222	614.67508	-413.37095	949.27726	921.86740	-106.07646	774.01587	972.71314	-184.89730	975.86168	934.25323	-346.96239	782.31763	982.62224	-302.12058	786.60507	1426.99487	-235.00898	828.59062	1394.25852	-79.66419	860.99736	1403.90096	-387.31966	914.36867	1382.11141	-203.79793	920.49911	1380.20476	-248.27826	832.84327	1266.17455	-11.94277	760.60289	1073.04512	-77.72335	770.29767	1080.32939	-2.20473	810.49961	961.40993	27.22718	833.23624	860.68164	34.26882	795.07748	856.56024	43.53770	891.29881	1258.86389	-455.22653	838.28323	1060.99290	-410.80665	848.30200	1075.04116	-481.73749	909.86122	998.78578	-511.55832	966.64516	880.87738	-511.09031	940.01021	869.69741	-526.93171	860.34805	854.27681	-142.92057	883.42103	861.69816	-330.73829	882.46065	853.31617	-150.59832	893.73642	866.77524	-309.79901	
87	0.86000000	1006.89570	474.37323	-85.84687	979.58637	357.41120	-103.98208	750.54785	209.99689	-120.41625	689.77853	206.38972	-175.30153	802.56480	94.52358	-88.69543	845.50046	86.34356	-129.40113	892.75130	466.82233	-367.29417	921.99439	371.07663	-305.69818	834.27816	85.21497	-303.29115	782.26883	50.63661	-251.43783	950.84107	37.04277	-308.90547	987.68814	56.39632	-254.07704	900.76398	281.10659	-118.47170	937.57675	394.25921	-53.08866	846.63540	330.37598	-74.80491	885.86633	380.90809	-385.68474	875.27038	260.64638	-380.80560	974.01645	782.11547	-77.00523	1024.00035	683.73031	-71.35199	984.72431	639.37479	-35.58431	876.24160	733.32860	-47.65079	928.23102	631.15533	-43.05840	968.67053	758.84971	-388.50205	974.56670	621.94392	-373.40687	869.57256	755.45558	-437.74530	872.28848	614.73930	-413.22412	960.32106	922.88854	-106.68168	784.65651	973.19434	-184.54969	985.81136	933.67691	-347.38093	792.63409	982.82194	-301.87274	798.41051	1427.42360	-235.06123	839.80015	1394.44939	-79.67203	873.40209	1404.45048	-386.96704	926.04174	1382.11340	-203.50401	932.41226	1380.27674	-248.00056	841.87981	1266.37840	-11.84853	768.15837	1074.19939	-78.67057	776.41842	1081.50848	-2.90546	814.10702	962.08007	27.64698	835.04854	860.98040	35.49566	796.81821	857.54583	43.83527	905.75803	1260.25916	-455.08625	854.95250	1061.20375	-413.04180	865.97121	1075.93401	-483.65435	929.75442	1001.31663	-512.76445	989.73247	884.92718	-511.80054	963.36961	873.21159	-528.18752	871.17220	855.07131	-142.44450	893.32090	861.44517	-330.41404	893.32857	853.71617	-150.82105	904.14227	866.76494	-309.83475	
88	0.87000000	1027.56970	478.47084	-87.10979	1004.96026	360.18128	-104.51499	784.17631	200.98871	-118.93924	722.98939	192.81056	-173.39963	843.34568	89.87562	-85.68577	886.79031	83.96870	-126.38969	896.97051	466.60593	-367.19698	925.11716	370.52978	-305.43208	834.40327	85.44361	-303.02896	782.59608	50.57176	-251.31410	950.85638	37.04891	-308.87767	987.77752	56.25689	-254.07552	930.39896	279.84720	-117.96895	961.37232	395.06649	-53.64211	873.81315	326.62473	-74.51102	889.17697	380.68915	-385.40794	877.36202	260.49237	-380.54733	987.68902	785.44866	-77.37196	1039.76301	688.23571	-72.82208	1001.97296	643.45446	-36.11744	891.24838	734.44092	-46.65095	945.76406	633.98734	-42.54357	976.71121	757.55902	-388.53175	980.82118	620.62514	-373.50539	877.23466	755.67501	-437.63808	878.32205	614.77436	-413.03906	971.36551	923.76281	-107.17024	795.37694	973.52143	-184.16292	995.77155	933.02049	-347.72910	802.95715	982.92713	-301.56742	810.15953	1427.74923	-235.08770	850.99078	1394.56082	-79.67882	885.66511	1404.91774	-386.64359	937.64551	1382.05686	-203.24809	944.17590	1380.25086	-247.77253	851.03310	1266.56415	-11.74068	775.84767	1075.31099	-79.48419	782.81714	1082.68187	-3.54499	817.94948	962.77906	28.05254	837.07022	861.28923	36.60602	798.87548	858.54148	44.08296	919.98660	1261.58252	-454.98929	871.74673	1061.38459	-415.06115	883.40507	1076.85276	-485.42298	949.40749	1003.86191	-513.87247	1012.54222	889.09614	-512.50580	986.39730	876.84109	-529.29943	882.02224	855.72649	-141.92597	903.26348	861.09960	-330.03358	904.26713	853.92442	-150.92520	914.52564	866.65058	-309.78885	
89	0.88000000	1047.47807	482.40889	-88.37755	1030.26102	363.05119	-104.98134	818.56122	191.36074	-117.55238	757.31645	178.80430	-171.51949	884.71444	85.23318	-83.06728	928.47154	81.70737	-123.84828	901.36190	466.38920	-367.02091	928.26142	369.97580	-305.06326	834.47799	85.67691	-302.79269	782.88624	50.58344	-251.22616	950.88050	37.02738	-308.84357	987.91670	56.11985	-254.07843	960.19284	278.53581	-117.49620	984.65949	395.50317	-54.17495	900.96434	322.36282	-74.19239	892.65419	380.51982	-385.06973	879.49438	260.34869	-380.26820	1001.18368	788.57822	-77.86759	1055.20763	692.48739	-74.49914	1018.93334	647.45243	-36.81986	906.18091	735.68698	-45.63301	963.08280	636.88199	-42.14707	984.75499	756.22363	-388.56347	987.10451	619.28344	-373.58491	884.91295	755.77638	-437.46565	884.41685	614.77994	-412.82583	982.43491	924.47569	-107.57229	806.19547	973.71739	-183.73126	1005.76224	932.29571	-348.04836	813.29513	982.94146	-301.20119	821.86585	1427.96246	-235.08775	862.17575	1394.59113	-79.68274	897.80686	1405.29064	-386.34781	949.18669	1381.93272	-203.02377	955.76488	1380.10064	-247.58763	860.35712	1266.71563	-11.62415	783.70506	1076.35956	-80.16035	789.52180	1083.83246	-4.10928	822.10274	963.49445	28.45141	839.38123	861.56124	37.59500	801.30394	859.55930	44.29511	933.98364	1262.81638	-454.93386	888.61103	1061.55040	-416.86249	900.60878	1077.77023	-487.03456	968.79297	1006.39814	-514.87522	1035.01709	893.35870	-513.16732	1009.08236	880.55562	-530.27218	892.91981	856.24089	-141.38772	913.24918	860.67463	-329.62186	915.28253	853.97022	-150.92296	924.87938	866.43522	-309.68486	
90	0.89000000	1066.53722	486.06071	-89.57426	1055.31897	366.00303	-105.36484	853.66407	181.29254	-116.32743	792.73171	164.54172	-169.73275	926.60731	80.72238	-80.90000	970.46754	79.70899	-121.82504	905.85198	466.16846	-366.79005	931.44383	369.40910	-304.64853	834.56303	85.93704	-302.56206	783.08498	50.68286	-251.14628	950.91365	36.96304	-308.80661	988.12158	55.98724	-254.08630	990.02765	277.21353	-117.08277	1007.46503	395.49919	-54.64662	928.11232	317.60017	-73.82782	896.19982	380.35580	-384.70384	881.65959	260.22620	-379.97238	1014.49572	791.47270	-78.50265	1070.29708	696.42236	-76.35495	1035.60106	651.19649	-37.69775	920.99562	737.03963	-44.64329	980.13110	639.68930	-41.88971	992.82949	754.86643	-388.57485	993.39774	617.92447	-373.60896	892.65379	755.77967	-437.23423	890.56631	614.75652	-412.59035	993.56282	925.02215	-107.92331	817.10576	973.80606	-183.26138	1015.78288	931.49859	-348.37880	823.64792	982.86911	-300.78149	833.53972	1428.05080	-235.05656	873.37368	1394.53713	-79.68106	909.83422	1405.55390	-386.07312	960.68380	1381.73111	-202.82212	967.17907	1379.80632	-247.43837	869.89024	1266.81721	-11.50635	791.75671	1077.32732	-80.70407	796.55148	1084.93732	-4.59023	826.63596	964.21484	28.85075	842.04311	861.75427	38.46630	804.14940	860.61811	44.49006	947.75832	1263.94518	-454.91874	905.45786	1061.71784	-418.45420	917.59931	1078.65116	-488.47862	987.88489	1008.90577	-515.76925	1057.10770	897.68505	-513.75418	1031.41680	884.33288	-531.11101	903.87734	856.62069	-140.84971	923.26410	860.17312	-329.20198	926.36935	853.87716	-150.84255	935.20594	866.11526	-309.55377	
91	0.90000000	1084.66958	489.30875	-90.62336	1079.85466	368.92815	-105.66781	889.42878	171.02811	-115.30634	829.19040	150.21392	-168.10966	968.95531	76.49294	-79.23025	1012.68813	78.14162	-120.34938	910.36788	465.93576	-366.52556	934.68118	368.82150	-304.23805	834.70863	86.23581	-302.32550	783.15709	50.87246	-251.04910	950.95749	36.84986	-308.76937	988.39514	55.86249	-254.09856	1019.76285	275.92438	-116.75586	1029.79835	395.01932	-55.02565	955.29708	312.37498	-73.41608	899.72210	380.15841	-384.33821	883.85878	260.13944	-379.66045	1027.62727	794.08815	-79.27960	1084.98811	699.96898	-78.34488	1051.95533	654.52213	-38.75822	935.66686	738.44426	-43.71073	996.81003	642.23504	-41.76807	1000.95193	753.50424	-388.55546	999.69499	616.55616	-373.55813	900.48395	755.70844	-436.96601	896.76634	614.70767	-412.33559	1004.78029	925.40434	-108.25516	828.08083	973.80783	-182.76732	1025.81445	930.61571	-348.74750	834.01117	982.71155	-300.31961	845.18554	1428.00516	-234.99360	884.60272	1394.39451	-79.66988	921.74713	1405.69415	-385.81078	972.16085	1381.44377	-202.63166	978.45609	1379.36683	-247.31404	879.64566	1266.85583	-11.39163	800.01911	1078.20020	-81.12750	803.91552	1085.96972	-4.98451	831.60246	964.92582	29.25525	845.10047	861.84539	39.23260	807.44759	861.72711	44.68815	961.32491	1264.95463	-454.94087	922.19826	1061.89180	-419.84966	934.38903	1079.46097	-489.74614	1006.66191	1011.36903	-516.55530	1078.77727	902.04320	-514.24741	1053.39314	888.15456	-531.81972	914.89560	856.87582	-140.32427	933.28547	859.58971	-328.78933	937.50753	853.66411	-150.71912	945.51481	865.68325	-309.42435	
92	0.91000000	1101.81192	492.05063	-91.45840	1103.58019	371.68285	-105.90094	925.78445	160.86021	-114.48351	866.62423	136.03995	-166.70219	1011.66964	72.71502	-78.09867	1055.01793	77.18027	-119.44890	914.86384	465.68434	-366.24116	937.99263	368.20910	-303.86278	834.94217	86.57433	-302.07903	783.10615	51.14337	-250.91642	951.01543	36.69820	-308.73246	988.71431	55.74545	-254.11110	1049.25144	274.71707	-116.53286	1051.64621	394.06599	-55.27921	982.54755	306.76385	-72.97571	903.16724	379.91016	-383.98654	886.08647	260.09831	-379.33482	1040.58038	796.36490	-80.19036	1099.23781	703.04462	-80.40921	1067.93479	657.31359	-39.98549	950.17751	739.82443	-42.84045	1012.99494	644.37529	-41.75419	1009.12533	752.14621	-388.51282	1006.00630	615.18669	-373.43600	908.41164	755.58072	-436.69321	903.01762	614.63912	-412.06511	1016.10518	925.62695	-108.59205	839.08608	973.73361	-182.26333	1035.83223	929.63550	-349.16377	844.38035	982.46504	-299.82489	856.80480	1427.82375	-234.90670	895.87706	1394.15790	-79.64398	933.54953	1405.70265	-385.55181	983.63926	1381.06363	-202.44082	989.66736	1378.80236	-247.19965	889.61367	1266.82033	-11.27737	808.50139	1078.96577	-81.44653	811.61515	1086.90224	-5.29217	837.03614	965.60745	29.66717	848.59267	861.84272	39.91641	811.22474	862.87354	44.91074	974.69890	1265.83110	-454.99266	938.77140	1062.05828	-421.06164	950.97805	1080.17196	-490.83332	1025.10945	1013.77358	-517.23672	1099.99906	906.40119	-514.63746	1075.00159	892.00086	-532.39952	925.96791	857.01337	-139.81733	943.29300	858.91669	-328.39169	948.67041	853.34595	-150.58599	955.81876	865.13342	-309.31606	
